<svg width="61" height="61" viewBox="0 0 61 61" fill="none" xmlns="http://www.w3.org/2000/svg">
<path d="M12.4493 8.33333H59L52.6667 30.5H15.8596M55.8333 43.1667H17.8333L11.5 2H2M21 55.8333C21 57.5823 19.5822 59 17.8333 59C16.0844 59 14.6667 57.5823 14.6667 55.8333C14.6667 54.0844 16.0844 52.6667 17.8333 52.6667C19.5822 52.6667 21 54.0844 21 55.8333ZM55.8333 55.8333C55.8333 57.5823 54.4156 59 52.6667 59C50.9177 59 49.5 57.5823 49.5 55.8333C49.5 54.0844 50.9177 52.6667 52.6667 52.6667C54.4156 52.6667 55.8333 54.0844 55.8333 55.8333Z" stroke="black" stroke-width="3" stroke-linecap="round" stroke-linejoin="round"/>
</svg>
