<svg width="173" height="232" viewBox="0 0 173 232" fill="none" xmlns="http://www.w3.org/2000/svg">
<path d="M9.32434 40.4626C11.8328 52.3777 14.3412 64.5018 17.0587 76.4169C21.4484 89.7952 25.8382 103.383 30.0189 116.761C36.7081 131.184 43.6063 145.608 50.2954 160.031C52.5948 163.794 54.8942 167.348 57.1936 171.11C62.0014 178.636 67.0183 186.161 71.8261 193.686C73.2894 192.432 74.5436 191.178 76.0069 189.923L88.549 197.658" stroke="#685F50" stroke-width="4"/>
<path d="M161.712 39.8354C160.039 51.1234 157.322 63.8746 153.35 77.671C149.379 91.6764 144.571 104.01 139.972 114.879C133.283 128.467 126.594 142.263 119.904 155.851C112.588 168.184 105.063 180.308 97.7466 192.641L100.464 191.596L83.9503 197.867" stroke="#685F50" stroke-width="4"/>
<path d="M154.814 125.749V197.449L86.8768 197.658L18.94 197.867L18.731 134.32" stroke="#685F50" stroke-width="4"/>
<path d="M31.9003 47.1518C33.9906 42.553 36.4991 38.1632 39.0075 34.1916C51.5497 14.5422 68.6906 2 86.8768 2C105.063 2 121.786 14.3331 134.328 33.7735C136.418 37.1181 138.509 40.6717 140.181 44.2253" stroke="#685F50" stroke-width="4"/>
<path d="M82.0689 195.358C81.0237 193.895 78.9334 192.223 76.634 190.341C76.2159 190.132 75.7978 189.714 75.3798 189.505C74.5436 188.878 73.9165 188.46 73.2894 187.833C72.6623 187.415 72.4533 186.997 72.0352 186.788C71.6171 186.579 71.199 185.952 70.781 185.534C65.7641 176.963 61.1653 162.54 59.493 153.76C56.5665 138.082 55.5213 121.36 55.7304 116.761C56.5665 88.5409 48.6231 67.8463 38.7984 55.0951C33.7816 48.824 28.3466 44.4342 23.3298 42.3439C18.3129 40.0445 13.9231 39.8354 10.5786 41.2987C7.65205 42.5529 5.14363 46.1065 3.47134 51.7505C2.00808 57.3945 1.59001 64.9198 2.42616 73.9083C4.09845 91.8854 10.3695 115.088 21.2394 139.337C31.9003 163.376 45.4876 178.635 58.2388 187.206C67.2274 193.059 75.3798 195.358 82.0689 195.358Z" stroke="#685F50" stroke-width="4"/>
<path d="M96.4924 193.268C97.3286 192.223 98.1647 190.969 98.7918 189.715C100.464 186.579 101.509 183.862 102.345 182.189C102.554 181.771 102.763 181.353 102.973 180.935C106.944 171.737 110.707 157.941 112.379 149.161C115.306 133.484 115.933 117.806 115.724 113.207C114.679 84.5693 122.413 63.8748 132.447 51.1235C137.463 44.8525 142.898 40.4627 148.124 38.3723C153.35 36.282 157.74 36.0729 161.294 37.7452C164.638 39.4175 167.356 42.7621 168.819 48.4061C170.491 54.2591 170.7 61.7844 170.073 70.7729C168.401 88.75 161.921 111.953 150.842 135.992C139.763 159.822 126.176 175.918 113.006 184.907C106.944 189.296 101.3 191.805 96.4924 193.268Z" stroke="#685F50" stroke-width="4"/>
<path d="M115.724 104.846C115.724 130.557 112.17 153.969 106.735 170.692C104.018 179.054 100.673 185.534 97.1195 190.132C93.5659 194.522 90.2213 196.613 87.0858 196.613C83.3231 196.195 79.9786 193.895 76.4249 189.296C72.8713 184.698 69.9448 178.008 67.4364 169.647C62.2105 152.924 59.0749 130.139 58.0298 104.846C58.0298 79.1343 61.5834 55.7222 67.0183 38.9993C69.7358 30.6379 73.0804 24.1578 76.634 19.559C80.1876 15.1692 83.5322 13.0789 86.8767 13.0789C90.0123 13.0789 93.5659 14.9602 97.1195 19.559C100.673 23.9487 104.018 30.6379 106.735 38.9993C112.17 55.5132 115.724 78.9253 115.724 104.846Z" stroke="#685F50" stroke-width="4"/>
<path d="M91.6846 103.8C92.1027 130.557 91.4755 154.596 90.4304 172.155C89.8033 180.935 89.1762 187.833 88.34 192.641C88.131 193.268 88.131 193.686 88.131 194.313C87.9219 193.686 87.9219 193.477 87.9219 192.641C87.0858 188.042 86.0406 180.935 85.2045 172.155C83.5322 154.805 82.487 130.766 82.278 104.009C81.8599 77.2528 82.487 53.2137 83.5322 35.6547C84.1593 26.8751 84.7864 19.9769 85.6225 15.1691C85.8316 14.542 85.8316 14.1239 85.8316 13.4968C86.0406 14.1239 86.0406 14.333 86.0406 15.1691C86.8768 19.7679 87.9219 26.8751 88.7581 35.6547C90.2213 53.2137 91.2665 77.0438 91.6846 103.8Z" stroke="#685F50" stroke-width="4"/>
<path d="M6.81592 227.341V226.505L8.48821 225.878C8.69724 225.878 8.69725 225.878 8.69725 225.669C8.69725 225.669 8.90628 225.46 8.90628 225.251V213.126C8.90628 212.917 8.90628 212.917 8.69725 212.708L8.48821 212.499L6.81592 211.872V211.036H12.6689L16.4316 221.697L17.0587 223.578H17.2677L21.6575 211.036H27.3015V211.872L25.6292 212.499C25.4201 212.499 25.4201 212.499 25.2111 212.708C25.2111 212.708 25.0021 212.917 25.0021 213.126V225.251C25.0021 225.46 25.0021 225.46 25.2111 225.669C25.4201 225.878 25.4201 225.878 25.6292 225.878L27.3015 226.505V227.341H20.4033V226.505L22.0756 225.878C22.2846 225.878 22.2846 225.878 22.4936 225.669C22.7027 225.46 22.7027 225.46 22.7027 225.251V212.499H22.4936L21.8665 214.172L18.1039 224.833L17.0587 227.341H16.0135L11.4147 214.172L10.9966 212.499H10.7876V225.251C10.7876 225.46 10.7876 225.46 10.9966 225.669C11.2057 225.878 11.2057 225.878 11.2057 225.878L12.878 226.505V227.341H6.81592Z" fill="#685F50"/>
<path d="M29.3918 227.341V226.505L31.0641 225.878C31.2731 225.878 31.2731 225.878 31.2731 225.669C31.2731 225.669 31.4822 225.46 31.4822 225.251V213.126C31.4822 212.917 31.4822 212.917 31.2731 212.708L31.0641 212.499L29.3918 211.872V211.036H36.081V211.872L34.4087 212.499C34.1996 212.499 34.1996 212.499 34.1996 212.708C34.1996 212.917 33.9906 212.917 33.9906 213.126V222.324L33.7816 223.787H33.9906L42.143 211.872V211.036H46.5328V211.872L44.8605 212.499C44.6514 212.499 44.6515 212.499 44.4424 212.708C44.2334 212.917 44.2334 212.917 44.2334 213.126V225.251C44.2334 225.46 44.2334 225.46 44.4424 225.669C44.6515 225.878 44.6514 225.878 44.8605 225.878L46.5328 226.505V227.341H39.8436V226.505L41.5159 225.878C41.7249 225.878 41.725 225.878 41.934 225.669C42.143 225.46 42.143 225.46 42.143 225.251V215.844L42.3521 214.381H42.143L33.9906 226.296V227.132H29.3918V227.341Z" fill="#685F50"/>
<path d="M48.8322 227.341V226.505L50.5045 225.878C50.7135 225.878 50.7135 225.878 50.7135 225.669C50.7135 225.669 50.9225 225.46 50.9225 225.251V213.126C50.9225 212.917 50.9225 212.917 50.7135 212.708L50.5045 212.499L48.8322 211.872V211.036H55.3123C56.3575 211.036 57.4027 211.245 58.2388 211.454C59.075 211.663 59.9111 212.29 60.3292 212.917C60.9563 213.545 61.1653 214.381 61.1653 215.426C61.1653 216.471 60.9563 217.516 60.5382 218.143C60.1201 218.98 59.493 219.607 58.6569 220.025C57.8207 220.443 56.9846 220.652 55.9394 220.652C55.5213 220.652 55.1033 220.652 54.6852 220.443C54.2671 220.234 53.8491 220.025 53.431 219.816V218.98C53.64 218.98 54.0581 219.189 54.4762 219.189C54.8942 219.189 55.3123 219.189 55.7304 219.189C56.3575 219.189 56.9846 218.98 57.4027 218.77C57.8207 218.561 58.2388 218.143 58.4478 217.934C58.6569 217.516 58.8659 217.098 58.8659 216.889C58.8659 216.471 59.075 216.262 59.075 216.053C59.075 215.426 58.8659 214.799 58.6569 214.381C58.4479 213.754 58.0298 213.336 57.4027 213.126C56.7756 212.708 56.1484 212.708 55.1033 212.708H53.64V225.46C53.64 225.669 53.64 225.669 53.8491 225.878L54.0581 226.087L55.9394 226.714V227.55H48.8322V227.341Z" fill="#685F50"/>
<path d="M70.5719 227.341V226.505L72.2442 225.878C72.4533 225.878 72.4533 225.878 72.4533 225.669C72.4533 225.669 72.6623 225.46 72.6623 225.251V213.126C72.6623 212.917 72.6623 212.917 72.4533 212.708L72.2442 212.499L70.5719 211.872V211.036H77.2611V211.872L75.5888 212.499C75.3798 212.499 75.3798 212.499 75.3798 212.708C75.3798 212.917 75.1707 212.917 75.1707 213.126V225.878H82.696V213.126C82.696 212.917 82.696 212.917 82.487 212.708C82.278 212.499 82.278 212.499 82.0689 212.499L80.3966 211.872V211.036H87.2948V211.872L85.6225 212.499C85.4135 212.499 85.4135 212.499 85.2045 212.708C84.9954 212.917 84.9954 212.917 84.9954 213.126V225.878H87.5039V231.313H85.8316L85.2045 227.55C85.2045 227.341 85.2045 227.341 84.9954 227.341H84.7864H70.5719Z" fill="#685F50"/>
<path d="M90.0123 227.341V226.505L91.6846 225.878C91.8936 225.878 91.8936 225.878 91.8936 225.669C91.8936 225.669 92.1027 225.46 92.1027 225.251V213.126C92.1027 212.917 92.1026 212.917 91.8936 212.708L91.6846 212.499L90.0123 211.872V211.036H96.4924C98.1647 211.036 99.2099 211.245 100.046 211.454C100.882 211.663 101.509 212.29 101.718 212.708C102.136 213.336 102.136 213.754 102.136 214.381C102.136 215.426 101.927 216.262 101.3 216.889C100.673 217.516 99.837 217.934 98.7918 218.352C99.628 218.352 100.464 218.561 101.091 218.98C101.718 219.398 102.345 219.816 102.763 220.234C103.182 220.861 103.391 221.488 103.391 222.115C103.391 222.951 103.182 223.787 102.763 224.414C102.345 225.042 101.927 225.46 101.3 225.878C100.673 226.296 100.046 226.505 99.2099 226.505C98.3737 226.505 97.7466 227.341 96.9105 227.341H90.0123ZM94.6111 212.708V218.561H95.6563C97.1195 218.561 98.3737 218.352 99.0008 217.934C99.628 217.516 99.837 216.889 99.837 216.053C99.837 215.008 99.628 214.172 99.0008 213.754C98.3737 213.336 97.5376 212.917 96.2834 212.917H94.6111V212.708ZM94.6111 219.816V226.087H97.1195C98.3737 226.087 99.2099 225.878 99.837 225.46C100.464 225.042 100.673 224.205 100.673 223.16C100.673 221.906 100.255 221.07 99.628 220.652C99.0008 220.234 97.9557 219.816 96.2834 219.816H94.6111Z" fill="#685F50"/>
<path d="M105.899 227.341V226.505L107.571 225.878C107.78 225.878 107.78 225.878 107.78 225.669C107.78 225.669 107.989 225.46 107.989 225.251V213.126C107.989 212.917 107.989 212.917 107.78 212.708L107.571 212.499L105.899 211.872V211.036H118.232V215.008H116.978L116.56 212.708C116.56 212.499 116.56 212.499 116.351 212.499L116.142 212.29H110.498V217.934H113.842C114.051 217.934 114.051 217.934 114.26 217.934L114.47 217.725L114.888 216.053H115.933V221.697H114.888L114.47 220.025C114.47 219.816 114.47 219.816 114.26 219.607C114.26 219.607 114.051 219.398 113.842 219.398H110.498V225.669H116.978C117.187 225.669 117.187 225.669 117.187 225.46L117.396 225.251L117.814 222.742H119.068V226.923H105.899V227.341Z" fill="#685F50"/>
<path d="M124.921 227.341V226.505L126.803 225.878C127.012 225.878 127.012 225.878 127.221 225.669C127.221 225.669 127.43 225.46 127.43 225.251V212.708H123.667C123.458 212.708 123.458 212.708 123.249 212.917L123.04 213.126L122.622 215.426H121.368V211.245H135.582V215.426H134.328L133.91 213.126C133.91 212.917 133.91 212.917 133.701 212.708H133.492H129.729V225.46C129.729 225.669 129.729 225.669 129.938 225.878C130.147 226.087 130.147 226.087 130.147 226.087L132.029 226.714V227.55H124.921V227.341Z" fill="#685F50"/>
<path d="M145.198 227.759C143.526 227.759 142.062 227.341 141.017 226.714C139.763 226.087 138.927 225.042 138.3 223.787C137.673 222.533 137.464 221.07 137.464 219.398C137.464 217.725 137.673 216.262 138.3 215.008C138.927 213.754 139.763 212.708 141.017 212.081C142.271 211.454 143.526 211.036 145.198 211.036C146.87 211.036 148.333 211.454 149.588 212.081C150.842 212.708 151.678 213.754 152.096 215.008C152.723 216.262 152.932 217.725 152.932 219.189C152.932 220.234 152.723 221.279 152.514 222.324C152.305 223.369 151.678 224.205 151.051 225.042C150.424 225.878 149.588 226.505 148.751 226.923C147.706 227.55 146.452 227.759 145.198 227.759ZM145.407 226.505C146.452 226.505 147.497 226.296 148.124 225.669C148.751 225.042 149.379 224.414 149.797 223.369C150.215 222.324 150.424 221.279 150.424 219.816C150.424 218.352 150.215 216.889 149.797 215.844C149.379 214.799 148.751 213.963 148.124 213.336C147.288 212.708 146.243 212.499 145.198 212.499C143.944 212.499 143.107 212.708 142.271 213.336C141.644 213.963 141.017 214.799 140.599 215.844C140.181 216.889 140.181 217.934 140.181 219.189C140.181 220.652 140.39 221.906 140.808 223.16C141.226 224.205 141.853 225.251 142.48 225.878C143.107 226.087 144.153 226.505 145.407 226.505Z" fill="#685F50"/>
<path d="M155.232 227.341V226.505L156.904 225.878C157.113 225.878 157.113 225.878 157.113 225.669C157.113 225.669 157.322 225.46 157.322 225.251V213.126C157.322 212.917 157.322 212.917 157.113 212.708L156.904 212.499L155.232 211.872V211.036H161.712C163.384 211.036 164.429 211.245 165.265 211.454C166.101 211.663 166.729 212.29 166.938 212.708C167.356 213.336 167.356 213.754 167.356 214.381C167.356 215.426 167.147 216.262 166.52 216.889C165.892 217.516 165.056 217.934 164.011 218.352C164.847 218.352 165.683 218.561 166.311 218.98C166.938 219.398 167.565 219.816 167.983 220.234C168.401 220.861 168.61 221.488 168.61 222.115C168.61 222.951 168.401 223.787 167.983 224.414C167.565 225.042 167.147 225.46 166.52 225.878C165.892 226.296 165.265 226.505 164.429 226.505C163.593 226.505 162.757 226.714 161.921 226.714H155.232V227.341ZM159.83 212.708V218.561H160.876C162.339 218.561 163.593 218.352 164.22 217.934C164.847 217.516 165.056 216.889 165.056 216.053C165.056 215.008 164.847 214.172 164.22 213.754C163.593 213.336 162.757 212.917 161.503 212.917H159.83V212.708ZM159.83 219.816V226.087H162.339C163.593 226.087 164.429 225.878 165.056 225.46C165.683 225.042 165.892 224.205 165.892 223.16C165.892 221.906 165.474 221.07 164.847 220.652C164.22 220.234 163.175 219.816 161.503 219.816H159.83Z" fill="#685F50"/>
</svg>
