<svg width="64" height="46" viewBox="0 0 64 46" fill="none" xmlns="http://www.w3.org/2000/svg">
<path d="M58.9167 0.333342H5.08334C4.51989 0.313553 3.9584 0.409948 3.43382 0.616528C2.90923 0.823107 2.43278 1.13545 2.03411 1.53411C1.63545 1.93278 1.32311 2.40923 1.11653 2.93382C0.909949 3.4584 0.813553 4.01989 0.833342 4.58334V41.4167C0.813553 41.9801 0.909949 42.5416 1.11653 43.0662C1.32311 43.5908 1.63545 44.0672 2.03411 44.4659C2.43278 44.8646 2.90923 45.1769 3.43382 45.3835C3.9584 45.5901 4.51989 45.6865 5.08334 45.6667H58.9167C59.4801 45.6865 60.0416 45.5901 60.5662 45.3835C61.0908 45.1769 61.5672 44.8646 61.9659 44.4659C62.3646 44.0672 62.6769 43.5908 62.8835 43.0662C63.0901 42.5416 63.1865 41.9801 63.1667 41.4167V4.58334C63.1865 4.01989 63.0901 3.4584 62.8835 2.93382C62.6769 2.40923 62.3646 1.93278 61.9659 1.53411C61.5672 1.13545 61.0908 0.823107 60.5662 0.616528C60.0416 0.409948 59.4801 0.313553 58.9167 0.333342ZM57.5 40H6.50001V6.00001H57.5V40Z" fill="#3B2919"/>
<path d="M9.75834 26.4H11.175C11.3253 26.4 11.4694 26.3403 11.5757 26.234C11.682 26.1278 11.7417 25.9836 11.7417 25.8333L12.3083 23.5667C12.3083 23.4164 12.368 23.2723 12.4743 23.166C12.5806 23.0597 12.7247 23 12.875 23H13.3C14.6688 23.0857 16.0238 22.6842 17.125 21.8667C17.587 21.4929 17.9556 21.0167 18.2015 20.4757C18.4474 19.9347 18.5639 19.3439 18.5417 18.75C18.5305 18.3107 18.4343 17.8777 18.2583 17.475C18.1059 17.0921 17.8628 16.7518 17.55 16.4833L16.4167 16.0583H11.8833C11.7331 16.0583 11.5889 16.1181 11.4827 16.2243C11.3764 16.3306 11.3167 16.4747 11.3167 16.625L9.33334 25.8333C9.33334 26.1167 9.47501 26.4 9.75834 26.4ZM12.875 20.45L13.3 18.4667C13.3 18.0417 13.5833 17.9 14.0083 17.9H14.4333C14.8336 17.8439 15.2399 17.9455 15.5667 18.1833C15.7141 18.2666 15.8333 18.392 15.9091 18.5434C15.9848 18.6948 16.0136 18.8655 15.9917 19.0334C15.9975 19.3092 15.936 19.5824 15.8126 19.8292C15.6892 20.076 15.5075 20.2891 15.2833 20.45C15 20.875 14.4333 21.0167 13.5833 21.0167H13.3C13.0167 21.0167 12.875 20.7334 12.875 20.45Z" fill="#3B2919"/>
<path d="M23.075 21.3H21.0917L19.3917 21.8667C18.8869 22.0795 18.4471 22.4215 18.1167 22.8584C17.9291 23.4055 17.8333 23.9799 17.8333 24.5584C17.8211 24.8213 17.8653 25.0838 17.9631 25.3281C18.0608 25.5725 18.2098 25.7931 18.4 25.975C18.7858 26.3328 19.2906 26.5347 19.8167 26.5417H20.6667L21.2333 26.2584L21.8 25.975L22.3667 25.55V25.8334C22.225 26.1167 22.3667 26.4 22.65 26.4H23.925C24.0753 26.4 24.2194 26.3403 24.3257 26.2341C24.432 26.1278 24.4917 25.9836 24.4917 25.8334L25.4833 21.0167V20.3084C25.5171 19.993 25.4538 19.6748 25.3019 19.3963C25.15 19.1179 24.9168 18.8924 24.6333 18.75C23.8805 18.4035 23.051 18.2571 22.225 18.325H20.1C19.9376 18.3581 19.792 18.4472 19.6884 18.5766C19.5849 18.706 19.53 18.8676 19.5333 19.0334L19.25 19.7417C19.25 20.3084 19.5333 20.1667 19.5333 20.1667L20.3833 19.8834H22.9333C23.0694 19.9421 23.1835 20.0421 23.2598 20.1692C23.336 20.2962 23.3705 20.444 23.3583 20.5917V20.875L23.075 21.3ZM22.65 24.1334V24.4167L22.0833 24.8417H20.3833L20.1 24.275C20.1092 23.9701 20.2077 23.6745 20.3833 23.425L20.95 23H22.9333C22.8814 23.3872 22.7864 23.7673 22.65 24.1334Z" fill="#3B2919"/>
<path d="M47.8667 21.3001H45.7417L44.0417 21.8668C43.5772 22.0828 43.1841 22.4268 42.9083 22.8584C42.5992 23.3696 42.4511 23.962 42.4833 24.5584C42.4711 24.8214 42.5153 25.0838 42.6131 25.3282C42.7108 25.5726 42.8598 25.7932 43.05 25.9751C43.4533 26.3042 43.9477 26.5019 44.4667 26.5418H45.3167L46.025 26.2584L46.5917 25.9751L47.0167 25.5501V25.8334C47.0167 26.1168 47.1583 26.4001 47.4417 26.4001H48.7167C49 26.4001 49.1417 26.1168 49.2833 25.8334L50.275 21.0168V20.3084C50.275 19.6001 50.1333 19.0334 49.5667 18.7501C48.8086 18.4205 47.9834 18.2749 47.1583 18.3251H44.75C44.325 18.4668 44.1833 19.0334 44.1833 19.0334V19.7418C44.0417 20.3084 44.325 20.1668 44.4667 20.1668L45.175 19.8834H47.5833C47.7194 19.9422 47.8335 20.0422 47.9098 20.1692C47.986 20.2963 48.0205 20.4441 48.0083 20.5918V20.8751L47.8667 21.3001ZM47.3 24.1334V24.4168L46.7333 24.8418H45.3167L45.0333 24.2751C44.9997 23.9841 45.0488 23.6895 45.175 23.4251L45.7417 23.0001H47.5833C47.5314 23.3873 47.4364 23.7674 47.3 24.1334Z" fill="#3B2919"/>
<path d="M34.4083 26.3999H35.825C35.9796 26.3686 36.1246 26.3009 36.2478 26.2023C36.371 26.1038 36.4689 25.9772 36.5333 25.8332L36.9583 23.5666C36.9583 23.4163 37.018 23.2722 37.1243 23.1659C37.2306 23.0596 37.3747 22.9999 37.525 22.9999H37.95C39.3589 23.0516 40.7478 22.6548 41.9167 21.8666C42.3337 21.4941 42.6641 21.0346 42.8844 20.5206C43.1046 20.0066 43.2095 19.4505 43.1917 18.8916C43.2218 18.4148 43.174 17.9363 43.05 17.4749C42.7667 17.0499 42.625 16.7666 42.2 16.6249C41.8698 16.3529 41.4824 16.1592 41.0667 16.0582H36.675C36.5093 16.0549 36.3477 16.1098 36.2182 16.2133C36.0888 16.3169 35.9998 16.4625 35.9667 16.6249L33.9833 25.8332C33.9833 26.1166 34.125 26.3999 34.4083 26.3999ZM37.525 20.4499L37.95 18.4666C38.0145 18.3226 38.1124 18.1961 38.2356 18.0975C38.3588 17.999 38.5037 17.9312 38.6583 17.8999H39.0833C39.4802 17.8866 39.8728 17.9848 40.2167 18.1832C40.3641 18.2665 40.4833 18.3919 40.5591 18.5433C40.6348 18.6947 40.6635 18.8654 40.6417 19.0333C40.6766 19.2982 40.6428 19.5676 40.5436 19.8157C40.4443 20.0638 40.283 20.2822 40.075 20.4499C39.845 20.655 39.5757 20.8109 39.2834 20.9084C38.9911 21.0058 38.682 21.0426 38.375 21.0166H37.95C37.6667 21.0166 37.525 20.7333 37.525 20.4499Z" fill="#3B2919"/>
<path d="M50.8417 26.4H52.1167C52.2644 26.4122 52.4121 26.3777 52.5392 26.3015C52.6663 26.2252 52.7662 26.111 52.825 25.975L54.6667 16.625C54.6667 16.3417 54.525 16.0583 54.2417 16.0583H52.9667C52.8432 16.0732 52.7259 16.1203 52.6264 16.1949C52.5269 16.2695 52.4489 16.369 52.4 16.4833V16.7667L50.7 25.4083V25.8333C50.5583 26.1167 50.7 26.4 50.8417 26.4Z" fill="#3B2919"/>
<path d="M26.3333 30.0834H27.75C27.9262 30.0621 28.0948 29.9997 28.2425 29.9013C28.3901 29.8028 28.5126 29.6711 28.6 29.5167L33.9833 19.3167C33.9833 19.3167 34.55 18.3251 34.125 18.4667H32.425C32.2452 18.4752 32.0712 18.5324 31.9214 18.6322C31.7717 18.732 31.6519 18.8707 31.575 19.0334C31.575 19.0334 29.5917 22.7167 29.45 23.1417H29.3083L28.6 19.0334C28.5669 18.871 28.4779 18.7253 28.3484 18.6218C28.219 18.5183 28.0574 18.4634 27.8917 18.4667H26.6167C26.3333 18.4667 26.1917 18.6084 26.3333 19.0334C26.475 19.4584 27.1833 24.8417 27.325 26.2584C27.4667 27.6751 27.325 27.1084 27.325 27.1084L26.1917 29.5167C26.05 29.8001 26.05 30.0834 26.3333 30.0834Z" fill="#3B2919"/>
</svg>
