<svg width="51" height="52" viewBox="0 0 51 52" fill="none" xmlns="http://www.w3.org/2000/svg">
<path d="M25.6667 0C20.5904 0 15.6279 1.50532 11.407 4.3256C7.18618 7.14589 3.89642 11.1545 1.95378 15.8444C0.0111314 20.5343 -0.497166 25.6952 0.493182 30.6739C1.48353 35.6529 3.92806 40.2261 7.5176 43.8159C11.1072 47.4054 15.6805 49.8498 20.6594 50.8402C25.6381 51.8306 30.799 51.3221 35.489 49.3795C40.1789 47.4368 44.1874 44.1473 47.0079 39.9264C49.828 35.7055 51.3333 30.7432 51.3333 25.6667C51.3333 18.8594 48.629 12.331 43.8159 7.51761C39.0024 2.70414 32.4738 0 25.6667 0ZM38.2754 17.5817L34.0725 37.4412C33.7517 38.8529 32.9175 39.1737 31.7304 38.5321L25.3137 33.7837L22.1054 36.7675C21.9543 36.9648 21.7602 37.1252 21.5379 37.2366C21.3155 37.3476 21.0707 37.4066 20.8221 37.4092L21.2712 30.9925L33.1421 20.2446C33.6875 19.7954 33.1421 19.5387 32.3721 19.9879L17.8062 29.1317L11.3896 27.1425C10.01 26.7254 9.97791 25.7629 11.6783 25.1212L36.4146 15.4962C37.6337 15.1433 38.6604 15.8492 38.2754 17.5817Z" fill="#3B2919"/>
</svg>
