<svg width="50" height="51" viewBox="0 0 50 51" fill="none" xmlns="http://www.w3.org/2000/svg">
<path d="M45.4545 0H4.54545C2.03409 0 0 2.07477 0 4.63636V46.3636C0 48.9252 2.03409 51 4.54545 51H45.4545C47.9659 51 50 48.9252 50 46.3636V4.63636C50 2.07477 47.9636 0 45.4545 0ZM42.475 21.9625C42.1795 21.9903 41.8818 22.0088 41.5818 22.0088C38.1841 22.0088 35.1977 20.2285 33.4591 17.5324C33.4591 24.6005 33.4591 32.6446 33.4591 32.7791C33.4591 39.0034 28.5114 44.0478 22.4114 44.0478C16.3114 44.0455 11.3636 38.9988 11.3636 32.7768C11.3636 26.5525 16.3114 21.5081 22.4114 21.5081C22.6432 21.5081 22.8682 21.529 23.0932 21.5429V27.0972C22.8659 27.0694 22.6455 27.0277 22.4114 27.0277C19.2977 27.0277 16.7727 29.6032 16.7727 32.7791C16.7727 35.955 19.2955 38.5305 22.4114 38.5305C25.5273 38.5305 28.2773 36.0269 28.2773 32.851C28.2773 32.7235 28.3318 6.95686 28.3318 6.95686H33.5341C34.0227 11.7022 37.7795 15.4484 42.475 15.7915V21.9625Z" fill="#3B2919"/>
</svg>
