<svg width="31" height="36" viewBox="0 0 31 36" fill="none" xmlns="http://www.w3.org/2000/svg">
<path d="M15.4764 0.729431C15.0791 0.735642 14.7005 0.899232 14.4237 1.1843C14.1469 1.46936 13.9944 1.85261 13.9999 2.24994V2.99994H5.74988C5.55118 2.99724 5.35393 3.03405 5.16958 3.10822C4.98523 3.18239 4.81744 3.29245 4.67598 3.43201C4.53452 3.57156 4.42219 3.73783 4.34552 3.92116C4.26885 4.10449 4.22937 4.30122 4.22937 4.49994H1.99988C1.80111 4.49713 1.60377 4.53385 1.41932 4.60797C1.23486 4.68209 1.06698 4.79213 0.925427 4.9317C0.783872 5.07127 0.671468 5.23757 0.594746 5.42096C0.518025 5.60435 0.478516 5.80115 0.478516 5.99994C0.478516 6.19873 0.518025 6.39553 0.594746 6.57892C0.671468 6.7623 0.783872 6.92861 0.925427 7.06818C1.06698 7.20775 1.23486 7.31779 1.41932 7.39191C1.60377 7.46603 1.80111 7.50275 1.99988 7.49994H28.9999C29.1986 7.50275 29.396 7.46603 29.5804 7.39191C29.7649 7.31779 29.9328 7.20775 30.0743 7.06818C30.2159 6.92861 30.3283 6.7623 30.405 6.57892C30.4817 6.39553 30.5212 6.19873 30.5212 5.99994C30.5212 5.80115 30.4817 5.60435 30.405 5.42096C30.3283 5.23757 30.2159 5.07127 30.0743 4.9317C29.9328 4.79213 29.7649 4.68209 29.5804 4.60797C29.396 4.53385 29.1986 4.49713 28.9999 4.49994H26.7704C26.7704 4.30122 26.7309 4.10449 26.6542 3.92116C26.5776 3.73783 26.4652 3.57156 26.3238 3.43201C26.1823 3.29245 26.0145 3.18239 25.8302 3.10822C25.6458 3.03405 25.4486 2.99724 25.2499 2.99994H16.9999V2.24994C17.0026 2.04925 16.9651 1.85006 16.8895 1.66415C16.8138 1.47824 16.7017 1.30939 16.5596 1.16761C16.4176 1.02583 16.2485 0.913994 16.0624 0.838729C15.8764 0.763463 15.6771 0.726297 15.4764 0.729431ZM1.99988 10.4999L4.68933 33.3515C4.86633 34.862 6.14489 35.9999 7.66589 35.9999H23.3339C24.8549 35.9999 26.1319 34.862 26.3104 33.3515L28.9999 10.4999H1.99988Z" fill="#3B2919"/>
</svg>
