<svg width="66" height="44" viewBox="0 0 66 44" fill="none" xmlns="http://www.w3.org/2000/svg">
<path d="M61.6 44H4.4C1.97083 44 0 42.0292 0 39.6V4.4C0 1.97083 1.97083 0 4.4 0H61.6C64.0292 0 66 1.97083 66 4.4V39.6C66 42.0292 64.0292 44 61.6 44ZM32.7067 27.0637L32.0485 31.1887C33.4968 31.8083 35.1817 32.1695 36.9508 32.1695C37.092 32.1695 37.2313 32.1677 37.3707 32.1622H37.3505C37.5118 32.1713 37.6988 32.1768 37.8895 32.1768C39.9227 32.1768 41.8073 31.5388 43.3547 30.4517L43.3235 30.4718C44.7278 29.4305 45.6298 27.7787 45.6298 25.916C45.6298 25.9068 45.6298 25.8977 45.6298 25.8885C45.6298 23.8718 44.2805 22.198 41.6203 20.9037C40.8393 20.5223 40.172 20.1227 39.545 19.6717L39.5872 19.701C39.2242 19.4627 38.9822 19.0685 38.9583 18.6157V18.612C38.9877 18.1353 39.2608 17.7283 39.6532 17.512L39.6605 17.5083C40.1775 17.2077 40.7972 17.0298 41.4608 17.0298C41.5378 17.0298 41.6148 17.0317 41.6918 17.0372H41.6808H41.8275C41.8697 17.0372 41.9192 17.0353 41.9687 17.0353C43.1493 17.0353 44.2695 17.2902 45.2797 17.7467L45.2283 17.7265L45.6573 17.9557L46.3155 13.9755C45.078 13.486 43.6425 13.2018 42.141 13.2018C42.1117 13.2018 42.0805 13.2018 42.0512 13.2018H42.0567C41.9393 13.1963 41.8018 13.1927 41.6643 13.1927C39.655 13.1927 37.7923 13.8288 36.2688 14.9105L36.2982 14.8903C34.9195 15.873 34.0303 17.4643 34.0303 19.2647V19.2738C34.012 21.2135 35.409 22.8892 38.1847 24.2605C38.918 24.5813 39.5505 24.9737 40.117 25.4448L40.1042 25.4338C40.425 25.7052 40.6322 26.103 40.6487 26.5485V26.5522V26.5558C40.6487 27.1407 40.3003 27.643 39.798 27.8685L39.7888 27.8722C39.2388 28.1618 38.5862 28.3305 37.8932 28.3305C37.8657 28.3305 37.8363 28.3305 37.8088 28.3305H37.8125C37.7722 28.3305 37.7227 28.3305 37.675 28.3305C36.1038 28.3305 34.6152 27.9822 33.2805 27.3588L33.3447 27.3863L32.7158 27.071L32.7067 27.0637ZM51.2692 29.1555H57.3467C57.4444 29.5747 57.6357 30.4914 57.9205 31.9055H62.3333L58.4943 13.5153H54.8277C54.7635 13.5098 54.6883 13.5062 54.6113 13.5062C53.581 13.5062 52.6992 14.1442 52.3398 15.0462L52.3343 15.0627L45.2943 31.9055H50.281L51.282 29.1573L51.2692 29.1555ZM27.3002 13.5153L24.3192 31.9055H29.0748L32.054 13.5153H27.3002ZM9.02367 17.2682L12.892 31.8762H17.9043L25.3752 13.5153H20.3408L15.6952 26.0627L15.2075 23.5125L13.5502 15.0627C13.3833 14.1662 12.6078 13.4952 11.6747 13.4952C11.5793 13.4952 11.484 13.5025 11.3923 13.5153L11.4033 13.5135H3.72717L3.67033 13.8857C9.581 15.3872 13.464 18.6267 15.213 23.5107C14.6465 22.0587 13.8197 20.8212 12.782 19.8L12.7802 19.7982C11.7407 18.7312 10.4922 17.875 9.10067 17.2902L9.02733 17.2627L9.02367 17.2682ZM56.5748 25.3733H52.6148C52.8825 24.6669 53.5132 22.9558 54.5068 20.24L54.5912 19.9815C54.6682 19.7908 54.7635 19.5415 54.8845 19.2372C55.0055 18.9328 55.0862 18.6835 55.1412 18.4928L55.4858 20.0677L56.573 25.366L56.5748 25.3733Z" fill="#3B2919"/>
</svg>
