<svg width="50" height="50" viewBox="0 0 50 50" fill="none" xmlns="http://www.w3.org/2000/svg">
<path d="M40.1011 35.4404H36.4922C35.1257 35.4404 34.7034 34.3539 32.2488 31.8662C30.1106 29.7959 29.1649 29.5177 28.6399 29.5177C27.9028 29.5177 27.6925 29.728 27.6925 30.745V34.0045C27.6925 34.8823 27.4126 35.4073 25.0988 35.4073C20.4315 35.0943 16.4201 32.5486 14.0914 28.8386L14.0566 28.7807C11.3536 25.4234 9.36112 21.3772 8.37566 16.9517L8.33922 16.7579C8.33922 16.2329 8.54956 15.741 9.5665 15.741H13.1755C14.0864 15.741 14.4375 16.1617 14.7903 17.1422C16.5757 22.2964 19.557 26.818 20.7843 26.818C21.2397 26.818 21.4501 26.6077 21.4501 25.4516V20.1201C21.3093 17.6656 20.0125 17.4569 20.0125 16.5807C20.0274 16.112 20.4116 15.7377 20.882 15.7377C20.8969 15.7377 20.9102 15.7377 20.9251 15.7393H20.9234H26.6027C27.3745 15.7393 27.6544 16.16 27.6544 17.071V24.2591C27.6544 25.0292 28.0055 25.3108 28.2159 25.3108C28.6713 25.3108 29.0589 25.0292 29.8986 24.1895C31.6443 22.0579 33.1366 19.6199 34.2744 16.9915L34.3506 16.7927C34.5908 16.1915 35.1672 15.7741 35.8413 15.7741C35.8727 15.7741 35.9025 15.7758 35.934 15.7774H35.929H39.538C40.6245 15.7774 40.8713 16.3356 40.6245 17.1091C39.1769 20.2973 37.5505 23.0368 35.6657 25.5742L35.7518 25.4516C35.3676 26.0826 35.2268 26.3625 35.7518 27.0664C36.1361 27.5915 37.3998 28.678 38.2412 29.6601C39.4585 30.8642 40.4787 32.2654 41.2489 33.8123L41.2903 33.9034C41.6414 34.9171 41.1147 35.4437 40.0978 35.4437L40.1011 35.4404ZM32.4608 0H17.2118C3.29428 0 0 3.29428 0 17.2118V32.4608C0 46.3783 3.29428 49.6726 17.2118 49.6726H32.4608C46.3783 49.6726 49.6726 46.3783 49.6726 32.4608V17.2118C49.6726 3.29428 46.3419 0 32.4608 0Z" fill="#3B2919"/>
</svg>
